HIERARCHY
ROOT hip
{
  OFFSET 0 0 0
  CHANNELS 6 Xposition Yposition Zposition Zrotation Yrotation Xrotation
  JOINT abdomen
  {
    OFFSET 0 20.6881 -0.73152
    CHANNELS 3 Zrotation Xrotation Yrotation
    JOINT chest
    {
      OFFSET 0 11.7043 -0.48768
      CHANNELS 3 Zrotation Xrotation Yrotation
      JOINT neck
      {
        OFFSET 0 22.1894 -2.19456
        CHANNELS 3 Zrotation Xrotation Yrotation
        JOINT head
        {
          OFFSET -0.24384 7.07133 1.2192
          CHANNELS 3 Zrotation Xrotation Yrotation
          JOINT leftEye
          {
            OFFSET 4.14528 8.04674 8.04672
            CHANNELS 3 Zrotation Xrotation Yrotation
            End Site
            {
              OFFSET 1 0 0
            }
          }
          JOINT rightEye
          {
            OFFSET -3.6576 8.04674 8.04672
            CHANNELS 3 Zrotation Xrotation Yrotation
            End Site
            {
              OFFSET 1 0 0
            }
          }
        }
      }
      JOINT rCollar
      {
        OFFSET -2.68224 19.2634 -4.8768
        CHANNELS 3 Zrotation Xrotation Yrotation
        JOINT rShldr
        {
          OFFSET -8.77824 -1.95073 1.46304
          CHANNELS 3 Zrotation Xrotation Yrotation
          JOINT rForeArm
          {
            OFFSET -28.1742 -1.7115 0.48768
            CHANNELS 3 Zrotation Xrotation Yrotation
            JOINT rHand
            {
              OFFSET -22.5879 0.773209 7.07136
              CHANNELS 3 Zrotation Xrotation Yrotation
              JOINT rThumb1
              {
                OFFSET -1.2192 -0.487915 3.41376
                CHANNELS 3 Zrotation Xrotation Yrotation
                JOINT rThumb2
                {
                  OFFSET -3.37035 -0.52449 3.41376
                  CHANNELS 3 Zrotation Xrotation Yrotation
                  End Site
                  {
                    OFFSET -1.78271 -1.18214 1.43049
                  }
                }
              }
              JOINT rIndex1
              {
                OFFSET -7.75947 0.938293 5.60832
                CHANNELS 3 Zrotation Xrotation Yrotation
                JOINT rIndex2
                {
                  OFFSET -2.54057 -0.884171 1.56538
                  CHANNELS 3 Zrotation Xrotation Yrotation
                  End Site
                  {
                    OFFSET -1.62519 -0.234802 1.16502
                  }
                }
              }
              JOINT rMid1
              {
                OFFSET -8.24714 1.18213 3.41376
                CHANNELS 3 Zrotation Xrotation Yrotation
                JOINT rMid2
                {
                  OFFSET -3.10165 -0.590103 1.0647
                  CHANNELS 3 Zrotation Xrotation Yrotation
                  End Site
                  {
                    OFFSET -2.48547 -0.328903 0.83742
                  }
                }
              }
              JOINT rRing1
              {
                OFFSET -8.82822 0.546677 1.51678
                CHANNELS 3 Zrotation Xrotation Yrotation
                JOINT rRing2
                {
                  OFFSET -2.60934 -0.819778 -0.0198488
                  CHANNELS 3 Zrotation Xrotation Yrotation
                  End Site
                  {
                    OFFSET -2.33842 -0.294052 0.168128
                  }
                }
              }
              JOINT rPinky1
              {
                OFFSET -8.27202 -0.0477905 -0.4584
                CHANNELS 3 Zrotation Xrotation Yrotation
                JOINT rPinky2
                {
                  OFFSET -1.82734 -0.647385 -0.700984
                  CHANNELS 3 Zrotation Xrotation Yrotation
                  End Site
                  {
                    OFFSET -1.69225 -0.51767 -0.607171
                  }
                }
              }
            }
          }
        }
      }
      JOINT lCollar
      {
        OFFSET 2.68224 19.2634 -4.8768
        CHANNELS 3 Zrotation Xrotation Yrotation
        JOINT lShldr
        {
          OFFSET 8.77824 -1.95073 1.46304
          CHANNELS 3 Zrotation Xrotation Yrotation
          JOINT lForeArm
          {
            OFFSET 28.1742 -1.7115 0.48768
            CHANNELS 3 Zrotation Xrotation Yrotation
            JOINT lHand
            {
              OFFSET 22.5879 0.773209 7.07136
              CHANNELS 3 Zrotation Xrotation Yrotation
              JOINT lThumb1
              {
                OFFSET 1.2192 -0.487915 3.41376
                CHANNELS 3 Zrotation Xrotation Yrotation
                JOINT lThumb2
                {
                  OFFSET 3.37035 -0.52449 3.41376
                  CHANNELS 3 Zrotation Xrotation Yrotation
                  End Site
                  {
                    OFFSET 1.78271 -1.18214 1.43049
                  }
                }
              }
              JOINT lIndex1
              {
                OFFSET 7.75947 0.938293 5.60832
                CHANNELS 3 Zrotation Xrotation Yrotation
                JOINT lIndex2
                {
                  OFFSET 2.54057 -0.884171 1.56538
                  CHANNELS 3 Zrotation Xrotation Yrotation
                  End Site
                  {
                    OFFSET 1.62519 -0.234802 1.16502
                  }
                }
              }
              JOINT lMid1
              {
                OFFSET 8.24714 1.18213 3.41376
                CHANNELS 3 Zrotation Xrotation Yrotation
                JOINT lMid2
                {
                  OFFSET 3.10165 -0.590103 1.0647
                  CHANNELS 3 Zrotation Xrotation Yrotation
                  End Site
                  {
                    OFFSET 2.48547 -0.328903 0.83742
                  }
                }
              }
              JOINT lRing1
              {
                OFFSET 8.82822 0.546677 1.51678
                CHANNELS 3 Zrotation Xrotation Yrotation
                JOINT lRing2
                {
                  OFFSET 2.60934 -0.819778 -0.0198488
                  CHANNELS 3 Zrotation Xrotation Yrotation
                  End Site
                  {
                    OFFSET 2.33842 -0.294052 0.168128
                  }
                }
              }
              JOINT lPinky1
              {
                OFFSET 8.27202 -0.0477905 -0.4584
                CHANNELS 3 Zrotation Xrotation Yrotation
                JOINT lPinky2
                {
                  OFFSET 1.82734 -0.647385 -0.700984
                  CHANNELS 3 Zrotation Xrotation Yrotation
                  End Site
                  {
                    OFFSET 1.69225 -0.51767 -0.607171
                  }
                }
              }
            }
          }
        }
      }
    }
  }
  JOINT rButtock
  {
    OFFSET -8.77824 4.35084 1.2192
    CHANNELS 3 Zrotation Xrotation Yrotation
    JOINT rThigh
    {
      OFFSET 0 -1.70687 -2.19456
      CHANNELS 3 Zrotation Xrotation Yrotation
      JOINT rShin
      {
        OFFSET 0 -36.8199 0.73152
        CHANNELS 3 Zrotation Xrotation Yrotation
        JOINT rFoot
        {
          OFFSET 0.73152 -45.1104 -5.12064
          CHANNELS 3 Zrotation Xrotation Yrotation
          End Site
          {
            OFFSET -1.1221 -3.69964 12.103
          }
        }
      }
    }
  }
  JOINT lButtock
  {
    OFFSET 8.77824 4.35084 1.2192
    CHANNELS 3 Zrotation Xrotation Yrotation
    JOINT lThigh
    {
      OFFSET 0 -1.70687 -2.19456
      CHANNELS 3 Zrotation Xrotation Yrotation
      JOINT lShin
      {
        OFFSET 0 -36.8199 0.73152
        CHANNELS 3 Zrotation Xrotation Yrotation
        JOINT lFoot
        {
          OFFSET -0.73152 -45.1104 -5.12064
          CHANNELS 3 Zrotation Xrotation Yrotation
          End Site
          {
            OFFSET 1.1221 -3.69964 12.103
          }
        }
      }
    }
  }
}
MOTION
Frames:	4
Frame Time:	0.00833333
-136.766 82.059 3.4251 -184.292 69.8484 178.052 -6.59897 9.50767 -0.0820337 0.849531 0.889536 -0.032945 3.88125 6.4361 0.550061 1.15057 -5.85837 1.12556 -0.0 0.0 0.0 -0.0 0.0 0.0 2.05298e-14 -2.96289e-13 -1.96527e-13 83.0718 31.4111 -6.19257 -16.1284 -8.81017 29.9369 -0.525952 -20.1724 -2.9594 3.80259e-10 1.77318e-10 4.91572e-11 6.60058e-10 3.05636e-10 9.08166e-11 3.80265e-10 1.77326e-10 4.91485e-11 7.73091 5.47488 0.417314 3.80258e-10 1.77324e-10 4.91591e-11 2.90554 0.965183 0.102902 3.80262e-10 1.77325e-10 4.91626e-11 10.2786 0.731801 0.0259123 3.80255e-10 1.77326e-10 4.9171e-11 2.22167 -0.733487 -0.20892 2.03187e-14 -2.9629e-13 -1.96663e-13 -70.296 18.7696 -3.32254 22.918 -17.1962 -46.3505 0.293978 -15.2862 2.20083 3.8605e-11 5.26947e-10 1.46868e-10 6.63531e-11 9.20119e-10 2.55795e-10 3.86029e-11 5.26949e-10 1.46885e-10 -7.73091 5.47488 -0.417314 3.86062e-11 5.26947e-10 1.46866e-10 -2.90554 0.965183 -0.102902 3.86011e-11 5.26947e-10 1.46872e-10 -10.2786 0.731801 -0.0259123 3.86082e-11 5.26949e-10 1.46873e-10 -2.22167 -0.733487 0.20892 -2.03217e-16 0.0 -3.88251e-19 9.52826 -24.8968 11.152 -0.268135 40.1843 1.05668 -20.6233 -28.838 -33.7086 2.03217e-16 0.0 3.88251e-19 -3.02433 -11.9621 9.65457 0.220508 39.829 -1.42688 25.4099 -31.0654 37.7652
-136.358 82.0934 3.57792 -184.828 71.0896 177.329 -6.63264 9.68666 0.23629 0.754551 0.776728 0.0573512 3.96472 6.30219 0.608866 1.0299 -5.69023 1.20577 -0.0 0.0 0.0 -0.0 0.0 0.0 2.60547e-14 -2.31459e-14 -4.71302e-14 83.1027 31.2855 -6.00606 -15.8594 -8.55968 29.3704 -0.49765 -19.6462 -2.87572 -1.63174e-10 -8.46659e-11 7.59655e-10 -2.89624e-10 -1.47635e-10 1.31167e-09 -1.63165e-10 -8.46564e-11 7.5965e-10 7.73091 5.47488 0.417314 -1.63174e-10 -8.46603e-11 7.59656e-10 2.90554 0.965183 0.102902 -1.63169e-10 -8.46589e-11 7.59663e-10 10.2786 0.731801 0.0259123 -1.63178e-10 -8.46588e-11 7.59673e-10 2.22167 -0.733487 -0.20892 2.58658e-14 -2.31358e-14 -4.727e-14 -70.297 19.9466 -3.23676 23.2647 -17.7855 -47.3385 0.250296 -14.1146 2.02499 -7.47288e-10 1.83259e-09 9.03391e-10 -1.30183e-09 3.16697e-09 1.55653e-09 -7.47291e-10 1.8326e-09 9.03408e-10 -7.73091 5.47488 -0.417314 -7.47287e-10 1.83259e-09 9.0339e-10 -2.90554 0.965183 -0.102902 -7.47293e-10 1.83259e-09 9.03399e-10 -10.2786 0.731801 -0.0259123 -7.47286e-10 1.83259e-09 9.03404e-10 -2.22167 -0.733487 0.20892 -2.03217e-16 0.0 -3.88251e-19 9.86072 -24.2281 11.8927 -0.261031 39.8101 1.0448 -20.6074 -29.0949 -33.5347 2.03217e-16 0.0 3.88251e-19 -1.81808 -12.8213 11.3727 0.274175 42.0706 -1.39989 22.6413 -27.9288 36.1651
-135.955 82.113 3.73091 -185.278 72.3576 176.672 -6.53141 9.85096 0.520584 0.632729 0.676603 0.141875 4.05418 6.18866 0.686602 0.870745 -5.588 1.31808 -0.0 0.0 0.0 -0.0 0.0 0.0 3.02953e-14 1.95992e-13 5.72997e-14 83.094 31.194 -5.80659 -15.6399 -8.3568 28.9159 -0.473541 -19.1802 -2.80214 -5.28847e-10 -2.58929e-10 1.15366e-09 -9.27657e-10 -4.48881e-10 1.98774e-09 -5.28835e-10 -2.58919e-10 1.15366e-09 7.73091 5.47488 0.417314 -5.28846e-10 -2.58924e-10 1.15366e-09 2.90554 0.965183 0.102902 -5.28839e-10 -2.58922e-10 1.15367e-09 10.2786 0.731801 0.0259123 -5.2885e-10 -2.58923e-10 1.15368e-09 2.22167 -0.733487 -0.20892 3.01371e-14 1.9601e-13 5.71506e-14 -70.3741 21.0167 -3.13456 23.5062 -18.2022 -48.0834 0.210076 -12.9461 1.85139 -1.22464e-09 2.53926e-09 1.2942e-09 -2.132e-09 4.3827e-09 2.22805e-09 -1.22465e-09 2.53927e-09 1.29421e-09 -7.73091 5.47488 -0.417314 -1.22464e-09 2.53926e-09 1.2942e-09 -2.90554 0.965183 -0.102902 -1.22465e-09 2.53926e-09 1.29421e-09 -10.2786 0.731801 -0.0259123 -1.22464e-09 2.53926e-09 1.29421e-09 -2.22167 -0.733487 0.20892 -2.03217e-16 0.0 -3.88251e-19 10.2448 -23.6094 12.6392 -0.254733 39.4797 1.03135 -20.5902 -29.2876 -33.4077 2.03217e-16 0.0 3.88251e-19 -0.710063 -13.7352 12.6073 0.330741 44.2021 -1.37964 20.1034 -25.1238 34.5595
-135.565 82.1176 3.87529 -185.581 73.6085 176.179 -6.2317 9.99297 0.76 0.463469 0.592959 0.219668 4.15875 6.09785 0.790481 0.655834 -5.57363 1.47288 -0.0 0.0 0.0 -0.0 0.0 0.0 3.17873e-14 3.80924e-13 1.09177e-13 83.0442 31.1334 -5.59335 -15.4806 -8.21165 28.5878 -0.452029 -18.7583 -2.73579 -6.39471e-10 -3.31273e-10 1.10524e-09 -1.11876e-09 -5.73537e-10 1.90232e-09 -6.39461e-10 -3.31264e-10 1.10524e-09 7.73091 5.47488 0.417314 -6.3947e-10 -3.31268e-10 1.10524e-09 2.90554 0.965183 0.102902 -6.39462e-10 -3.31267e-10 1.10525e-09 10.2786 0.731801 0.0259123 -6.39474e-10 -3.31268e-10 1.10525e-09 2.22167 -0.733487 -0.20892 3.16766e-14 3.80945e-13 1.09004e-13 -70.5391 21.9795 -2.98835 23.6587 -18.4643 -48.596 0.173329 -11.7914 1.68119 -1.29297e-09 2.40885e-09 1.14239e-09 -2.24809e-09 4.15814e-09 1.96612e-09 -1.29297e-09 2.40886e-09 1.1424e-09 -7.73091 5.47488 -0.417314 -1.29296e-09 2.40885e-09 1.14239e-09 -2.90554 0.965183 -0.102902 -1.29297e-09 2.40885e-09 1.14239e-09 -10.2786 0.731801 -0.0259123 -1.29296e-09 2.40885e-09 1.1424e-09 -2.22167 -0.733487 0.20892 -2.03217e-16 0.0 -3.88251e-19 10.746 -23.0413 13.4475 -0.24926 39.1938 1.01437 -20.5884 -29.3919 -33.3682 2.03217e-16 0.0 3.88251e-19 0.311829 -14.7427 13.3083 0.397023 46.2781 -1.36746 17.6616 -22.6208 32.7236
